<svg id="Layer_1" data-name="Layer 1" xmlns="http://www.w3.org/2000/svg" viewBox="0 0 77.42 72.44"><defs><style>.cls-1{fill:#fff;stroke-linecap:round;}.cls-1,.cls-2{stroke:#4488d5;stroke-miterlimit:10;stroke-width:2px;}.cls-2{fill:none;}.cls-3{fill:#4488d5;}.cls-4{fill:#66bb46;}</style></defs><title>Job_alert_icons</title><line class="cls-1" x1="14.37" y1="27.97" x2="43.43" y2="27.97"/><line class="cls-1" x1="14.37" y1="34.77" x2="37.95" y2="34.77"/><line class="cls-1" x1="14.37" y1="41.58" x2="42.94" y2="41.58"/><path class="cls-2" d="M61.93,62.62v1.62a2.85,2.85,0,0,1-2.84,2.83H9.27a2.85,2.85,0,0,1-2.84-2.83V3.86A2.85,2.85,0,0,1,9.27,1H59.09a2.85,2.85,0,0,1,2.84,2.84V52.5"/><path class="cls-3" d="M15.06,17.05a2.11,2.11,0,0,1-.77-.12V16a2.67,2.67,0,0,0,.69.1c.61,0,.92-.39.92-1.17V10H17l0,4.88a2.31,2.31,0,0,1-.51,1.62A1.87,1.87,0,0,1,15.06,17.05Z"/><path class="cls-3" d="M25,13.54a3.77,3.77,0,0,1-.84,2.62,3,3,0,0,1-2.39.94,3.08,3.08,0,0,1-2.41-.93,3.85,3.85,0,0,1-.83-2.64,3.78,3.78,0,0,1,.84-2.63A3.1,3.1,0,0,1,21.74,10a3.05,3.05,0,0,1,2.38.93A3.77,3.77,0,0,1,25,13.54Zm-5.27,0a3.14,3.14,0,0,0,.51,1.94,1.81,1.81,0,0,0,1.53.65,1.81,1.81,0,0,0,1.52-.65,3.1,3.1,0,0,0,.51-1.94,3.11,3.11,0,0,0-.51-1.93A1.81,1.81,0,0,0,21.74,11a1.87,1.87,0,0,0-1.54.65A3.11,3.11,0,0,0,19.69,13.54Z"/><path class="cls-3" d="M26.44,10.1h2a3.9,3.9,0,0,1,2.07.41,1.47,1.47,0,0,1,.63,1.32,1.57,1.57,0,0,1-.31,1,1.4,1.4,0,0,1-.9.51v0a1.82,1.82,0,0,1,1.07.55A1.62,1.62,0,0,1,31.4,15a1.79,1.79,0,0,1-.65,1.46,2.83,2.83,0,0,1-1.81.52h-2.5ZM27.57,13h1.09a1.83,1.83,0,0,0,1-.22A.87.87,0,0,0,30,12a.77.77,0,0,0-.35-.7A2.17,2.17,0,0,0,28.55,11h-1Zm0,.92v2.18h1.2a1.76,1.76,0,0,0,1.07-.27,1,1,0,0,0,.36-.85.92.92,0,0,0-.36-.8,1.91,1.91,0,0,0-1.12-.26Z"/><path class="cls-4" d="M26.28,48.65h-.66v2.16h.46a1.28,1.28,0,0,0,.91-.32,1.15,1.15,0,0,0,.34-.89C27.33,49,27,48.65,26.28,48.65Z"/><path class="cls-4" d="M34.58,48.65h-.65v2.16h.46a1.29,1.29,0,0,0,.91-.32,1.18,1.18,0,0,0,.33-.89C35.63,49,35.28,48.65,34.58,48.65Z"/><path class="cls-4" d="M17.56,49.28c-.13-.54-.22-.93-.27-1.16,0,.21-.11.57-.22,1.07s-.37,1.49-.76,3h2l-.41-1.54C17.81,50.27,17.7,49.83,17.56,49.28Z"/><path class="cls-4" d="M60.85,40.89H6.74A5.71,5.71,0,0,0,1,46.59V56a5.72,5.72,0,0,0,5.7,5.7H60.85c.74,0-2-8.87-1.32-9.13,2.11-.84,5.21,2,7,3.43V46.59A5.71,5.71,0,0,0,60.85,40.89ZM19.3,56l-.46-1.76H15.79L15.31,56H12.53l3.06-9.42H19L22.07,56ZM29,52a3.76,3.76,0,0,1-2.64.86h-.71V56H23.08V46.61h3.25a4,4,0,0,1,2.67.77,2.77,2.77,0,0,1,.9,2.21A3.14,3.14,0,0,1,29,52Zm8.3,0a3.72,3.72,0,0,1-2.63.86h-.71V56H31.39V46.61h3.25a4,4,0,0,1,2.67.77,2.8,2.8,0,0,1,.89,2.21A3.14,3.14,0,0,1,37.27,52Zm8.58,4H39.7V46.61h2.53v7.33h3.62ZM52,52.33V56H49.42V52.4l-3.08-5.79H49.1l1.6,3.48,1.62-3.48h2.75Z"/><path class="cls-2" d="M66.55,55V46.59a5.71,5.71,0,0,0-5.7-5.7H6.74A5.71,5.71,0,0,0,1,46.59V56a5.72,5.72,0,0,0,5.7,5.7H60.85a5.71,5.71,0,0,0,1.5-.2"/><path class="cls-3" d="M59.89,52.9l14.89,7.2-4.53,2.21,5.17,6L72.9,70.44l-5.17-6-2.82,4.17-5-15.76m0-2a1.94,1.94,0,0,0-1.31.49A2,2,0,0,0,58,53.5l5,15.76a2,2,0,0,0,1.62,1.37,1.33,1.33,0,0,0,.28,0,2,2,0,0,0,1.66-.88l1.36-2,3.46,4a2,2,0,0,0,1.51.69A2,2,0,0,0,74.21,72l2.52-2.18a2,2,0,0,0,.68-1.37A2,2,0,0,0,76.93,67l-3.46-4,2.19-1.06a2,2,0,0,0,1.12-1.8,2,2,0,0,0-1.13-1.8L60.76,51.1a1.94,1.94,0,0,0-.87-.2Z"/></svg>