<svg xmlns="http://www.w3.org/2000/svg" width="48" height="48" viewBox="0 0 48 48"><g stroke="#4985c5" stroke-width="1.145" stroke-miterlimit="10"><circle cx="23.662" cy="8.45" r="1.562" fill="#ffcc07"/><circle cx="23.662" cy="40.132" r="2.616" fill="#ffcc07"/><path d="M39.68 36.296c-4.424-5.948-4.884-13.091-4.906-15.47a.828.828 0 0 0-.021-.174c.012-.213.032-.425.032-.641 0-6.181-5.01-11.191-11.191-11.191s-11.191 5.01-11.191 11.191c0 .421.028.836.073 1.245-.052 2.712-.637 9.417-4.838 15.054-.801 1.075-.049 2.601 1.291 2.601h29.47c1.348 0 2.085-1.533 1.281-2.615z" fill="#fff"/><path d="M8.694 17.327s.429-7.849 7.12-9.774M6.572 13.452s.302-5.524 5.011-6.879M39.306 17.327s-.429-7.849-7.12-9.774M41.428 13.452s-.302-5.524-5.011-6.879" fill="none" stroke-linecap="round"/></g></svg>