<svg id="Layer_1" data-name="Layer 1" xmlns="http://www.w3.org/2000/svg" viewBox="0 0 62.89 65.19"><defs><style>.cls-1{fill:#ffcc07;}.cls-2{fill:#4488d5;}</style></defs><title>Job_alert_icons</title><path class="cls-1" d="M28.53,5.65a2.73,2.73,0,1,1,5-1.44,2.67,2.67,0,0,1-.42,1.45"/><path class="cls-2" d="M34,6.19,32.32,5.13a1.73,1.73,0,1,0-2.94,0l-1.7,1.06a3.79,3.79,0,0,1-.56-2,3.73,3.73,0,1,1,6.89,2Z"/><path class="cls-1" d="M35,57.74a4.61,4.61,0,0,1,.4,1.89,4.57,4.57,0,1,1-8.78-1.78"/><path class="cls-2" d="M30.85,65.19a5.57,5.57,0,0,1-5.57-5.56,5.5,5.5,0,0,1,.44-2.17l1.84.78a3.63,3.63,0,0,0-.28,1.39,3.57,3.57,0,0,0,7.14,0,3.49,3.49,0,0,0-.31-1.47l1.82-.83a5.49,5.49,0,0,1,.49,2.3A5.57,5.57,0,0,1,30.85,65.19Z"/><path class="cls-2" d="M56.6,58.49H5.12a3.79,3.79,0,0,1-3.42-2.1,3.84,3.84,0,0,1,.36-4c7.15-9.6,8.16-21.09,8.25-25.65a22,22,0,0,1-.12-2.22,20.55,20.55,0,1,1,41.09,0q0,.43,0,.87l0,.18a2.19,2.19,0,0,1,0,.36c0,3.61.74,16.17,8.38,26.44A3.89,3.89,0,0,1,60,56.4,3.78,3.78,0,0,1,56.6,58.49ZM30.73,5.93A18.57,18.57,0,0,0,12.19,24.48a19,19,0,0,0,.12,2.06v.13c-.09,4.71-1.11,16.77-8.65,26.88a1.82,1.82,0,0,0-.17,1.94,1.77,1.77,0,0,0,1.63,1H56.6a1.79,1.79,0,0,0,1.62-1,1.87,1.87,0,0,0-.19-2h0c-7.78-10.45-8.72-22.79-8.77-27.61l0-.37,0-.32c0-.25,0-.49,0-.74A18.57,18.57,0,0,0,30.73,5.93Z"/><path class="cls-2" d="M4.71,20.79H4.65a1,1,0,0,1-.94-1.06c0-.14.93-14.46,13.16-18a1,1,0,0,1,1.24.69,1,1,0,0,1-.69,1.23C6.54,6.81,5.71,19.71,5.71,19.84A1,1,0,0,1,4.71,20.79Z"/><path class="cls-2" d="M1,14H.94A1,1,0,0,1,0,13C0,12.86.67,2.57,9.48,0a1,1,0,0,1,1.23.68A1,1,0,0,1,10,2C2.6,4.1,2,12.71,2,13.07A1,1,0,0,1,1,14Z"/><path class="cls-2" d="M58.18,20.79a1,1,0,0,1-1-.95c0-.13-.86-13-11.71-16.17a1,1,0,0,1-.69-1.23A1,1,0,0,1,46,1.75c12.23,3.52,13.15,17.84,13.16,18a1,1,0,0,1-.94,1.06Z"/><path class="cls-2" d="M61.89,14a1,1,0,0,1-1-.95c0-.36-.6-9-8-11.11A1,1,0,1,1,53.41,0C62.22,2.57,62.88,12.86,62.89,13a1,1,0,0,1-1,1.06Z"/></svg>