<svg xmlns="http://www.w3.org/2000/svg" xmlns:xlink="http://www.w3.org/1999/xlink" width="48" height="48" viewBox="0 0 48 48"><path fill="none" stroke="#4985c5" stroke-width="1.36" stroke-linecap="round" stroke-miterlimit="10" d="M7.59 24.92H15M7.59 28.33h14.06M7.59 31.68h9.16M7.59 35.03H19.2"/><path d="M29.07 39.48H5.61a1.94 1.94 0 0 1-1.93-1.93V8.9c0-1.06.87-1.93 1.93-1.93h23.46c1.06 0 1.93.86 1.93 1.93v28.66c0 1.06-.87 1.92-1.93 1.92z" fill="none" stroke="#4985c5" stroke-width="1.36" stroke-miterlimit="10"/><path fill="none" stroke="#4985c5" stroke-width="1.36" stroke-linecap="round" stroke-miterlimit="10" d="M7.59 14.09h8.58M7.59 17.42h7.03"/><defs><circle id="a" cx="23.98" cy="20.27" r="7.58"/></defs><clipPath id="b"><use xlink:href="#a" overflow="visible"/></clipPath><g clip-path="url(#b)"><path d="M13.95 2.47H8.3a.56.56 0 0 1-.57-.56V0s-.04-.25.16-.56c.2-.3.62-.53.62-.53l.23-.14c.32-.18 1.33-.42 1.87-.71l.58-.51h4.85" fill="#51a5d6"/><path d="M13.95 3.5H8.3c-.87 0-1.58-.72-1.59-1.58V.04c-.01-.22.01-.67.33-1.16.32-.5.88-.81.99-.87l.2-.12c.24-.14.55-.24.94-.37.29-.1.64-.2.86-.32l.77-.67h5.24v2.04h-4.47l-.47.38c-.37.2-.86.37-1.29.51-.23.08-.44.14-.56.2l-.22.13c-.12.07-.24.16-.28.2v1.46h5.19v2.04z" fill="#4985c5"/><path d="M16.05-2.45l.58.5c.54.3 1.55.54 1.87.72l.23.14s.42.22.62.53c.2.31.16.57.16.57v1.9c0 .31-.26.56-.57.56H13.3" fill="#51a5d6"/><path d="M18.94 3.5H13.3V1.44h5.19V0a1.05 1.05 0 0 0-.24-.19l-.27-.15c-.1-.06-.32-.12-.55-.2-.43-.14-.91-.3-1.3-.51l-.17-.12-.58-.51 1.35-1.54.48.43c.22.1.57.22.86.31.4.13.7.23.94.37l.24.14c.07.04.63.35.96.86.31.48.34.93.32 1.15v1.88c0 .86-.72 1.57-1.59 1.57z" fill="#4985c5"/><path d="M11.03-3.7a2.67 2.67 0 0 0 2.6 2.69 2.67 2.67 0 0 0 2.6-2.7c.07-.48.17-.63.25-1.65-.03-1.13 0-.75-.03-1.13-.13-1.73-1.2-2.68-2.87-2.68-1.62.03-2.65.97-2.77 2.66-.03.38-.02.36-.04 1.12-.02.76.19 1.2.26 1.68z" fill="#fff"/><path d="M13.64.01a3.68 3.68 0 0 1-3.63-3.62l-.07-.3c-.1-.38-.2-.85-.19-1.51l.01-.56c0-.25 0-.33.03-.6.16-2.18 1.6-3.57 3.77-3.62 2.25 0 3.74 1.4 3.9 3.63l.02.35.02.82v.11c-.06.78-.14 1.13-.2 1.4l-.06.28a3.67 3.67 0 0 1-3.6 3.62zm-.06-8.16c-1.09.02-1.67.58-1.75 1.72l-.03.48v.59c-.02.38.05.64.12.95.05.19.1.36.12.55l.01.13c.03.97.7 1.68 1.6 1.7.86-.02 1.53-.73 1.55-1.7l.02-.13c.02-.19.05-.33.09-.47.05-.24.1-.47.15-1.05l-.02-.82-.01-.22c-.09-1.17-.7-1.73-1.85-1.73z" fill="#4985c5"/><g><path d="M24.06 11.48H6.64a1.02 1.02 0 1 1 0-2.04h17.42a1.02 1.02 0 1 1 0 2.04z" fill="#4985c5"/></g><g><path d="M24.66 16.51H6.5c-.49 0-.88-.46-.88-1.02s.39-1.02.88-1.02h18.16c.48 0 .88.46.88 1.02s-.4 1.02-.88 1.02z" fill="#4985c5"/></g><g><path d="M20.39 21.54H6.64a1.02 1.02 0 1 1 0-2.04h13.75a1.02 1.02 0 1 1 0 2.04z" fill="#4985c5"/></g><g><path d="M24.06 26.57H6.64a1.02 1.02 0 1 1 0-2.04h17.42a1.02 1.02 0 1 1 0 2.04z" fill="#4985c5"/></g><g><path d="M38.88 33.25H3.67a3.92 3.92 0 0 1-3.92-3.92v-43a3.92 3.92 0 0 1 3.92-3.92h35.2a3.92 3.92 0 0 1 3.93 3.91v43.01a3.92 3.92 0 0 1-3.92 3.92zM3.67-15.55c-1.03 0-1.87.84-1.87 1.87v43.01c0 1.03.84 1.87 1.87 1.87h35.2c1.04 0 1.88-.84 1.88-1.87v-43c0-1.04-.84-1.88-1.87-1.88H3.67z" fill="#4985c5"/></g></g><g stroke="#4985c5" stroke-width="1.36" stroke-miterlimit="10"><path d="M31.27 31.36l8.35 8.31c.82.82 2.1.87 2.87.1l.87-.87c.76-.76.71-2.04-.1-2.86l-6.32-6.33v.01l-1.99-1.97" fill="#51a5d6"/><path d="M33.3 10.96a13 13 0 0 0-9.25-3.83c-3.5 0-6.78 1.36-9.25 3.82a13.1 13.1 0 0 0 9.25 22.33 13.1 13.1 0 0 0 9.25-22.32zm-3.43 15.06a8.18 8.18 0 0 1-5.82 2.41c-2.2 0-4.27-.85-5.82-2.4a8.16 8.16 0 0 1-2.41-5.83c0-2.2.85-4.27 2.4-5.82a8.17 8.17 0 0 1 5.83-2.41c2.2 0 4.26.86 5.82 2.41 1.55 1.56 2.4 3.62 2.4 5.82s-.85 4.27-2.4 5.82z" fill="#fff"/></g></svg>