<?xml version="1.0" standalone="no"?>
<!DOCTYPE svg PUBLIC "-//W3C//DTD SVG 20010904//EN"
 "http://www.w3.org/TR/2001/REC-SVG-20010904/DTD/svg10.dtd">
<svg version="1.0" xmlns="http://www.w3.org/2000/svg"
 width="308.000000pt" height="91.000000pt" viewBox="0 0 308.000000 91.000000"
 preserveAspectRatio="xMidYMid meet">

<g transform="translate(0.000000,91.000000) scale(0.100000,-0.100000)"
fill="#000000" stroke="none">
<path d="M46 864 l-26 -27 0 -374 c0 -238 4 -381 10 -394 28 -51 -43 -49 1510
-49 1567 0 1482 -3 1508 55 9 19 12 129 12 390 l0 363 -26 31 -26 31 -1468 0
-1467 0 -27 -26z m1009 -126 c7 -7 -1 -8 -23 -3 -58 12 -94 -44 -55 -87 18
-21 53 -24 71 -6 17 17 15 28 -7 28 -11 0 -23 5 -26 10 -4 6 8 10 29 10 29 0
36 -4 36 -19 0 -45 -64 -74 -104 -47 -47 30 -46 95 2 120 27 15 58 12 77 -6z
m628 -10 c24 -28 21 -65 -8 -93 -30 -30 -54 -31 -89 -4 -44 35 -31 102 24 122
23 8 53 -2 73 -25z m-1344 -19 c318 -174 412 -232 409 -252 -3 -21 -99 -86
-128 -87 -8 0 -34 19 -57 42 l-43 42 -138 -137 c-76 -76 -141 -135 -145 -131
-13 13 -8 539 5 552 16 16 11 17 97 -29z m821 32 c-47 -8 -50 -43 -5 -52 l30
-6 -30 -4 c-22 -3 -30 -9 -30 -24 0 -15 9 -22 35 -26 l35 -6 -42 -2 -43 -1 0
65 0 65 43 -1 42 -2 -35 -6z m123 2 c-21 -4 -23 -10 -23 -64 0 -33 -4 -59 -10
-59 -6 0 -10 26 -10 59 0 54 -2 60 -22 64 -13 2 2 4 32 4 30 0 45 -2 33 -4z
m94 -90 c-2 -21 -4 -6 -4 32 0 39 2 55 4 38 2 -18 2 -50 0 -70z m106 87 c-20
-8 -23 -17 -23 -65 0 -30 -4 -55 -10 -55 -6 0 -10 26 -10 59 0 54 -2 60 -22
64 -13 2 2 5 32 5 42 1 50 -1 33 -8z m294 -37 l28 -48 3 48 c5 71 22 57 22
-18 0 -81 -14 -84 -57 -12 l-32 52 -1 -52 c0 -29 -4 -53 -10 -53 -6 0 -10 28
-10 65 0 81 16 85 57 18z m-628 -194 c41 -18 43 -21 29 -35 -12 -13 -20 -14
-36 -5 -31 16 -94 13 -118 -7 -55 -44 -59 -109 -10 -158 27 -27 42 -34 74 -34
43 0 86 27 95 60 5 18 0 20 -44 20 -42 0 -49 3 -49 20 0 18 7 20 70 20 68 0
70 -1 70 -25 0 -43 -27 -94 -62 -115 -26 -17 -45 -20 -92 -17 -54 3 -62 7 -97
45 -35 37 -39 47 -39 94 0 75 38 127 108 148 41 13 53 11 101 -11z m776 -134
c0 -138 0 -140 -22 -143 -23 -3 -23 -3 -23 136 0 76 3 142 7 146 4 4 14 5 23
4 13 -3 15 -25 15 -143z m454 118 c27 -21 37 -58 27 -99 -8 -30 -54 -54 -106
-54 l-40 0 0 -55 c0 -48 -2 -55 -20 -55 -19 0 -20 7 -20 146 l0 147 66 -6 c44
-3 75 -12 93 -24z m99 -121 c2 -137 2 -142 -18 -142 -19 0 -20 6 -20 146 0
133 1 145 18 142 15 -3 17 -19 20 -146z m-1089 33 c88 -45 50 -175 -51 -175
-71 0 -114 68 -83 133 25 54 79 71 134 42z m212 0 c55 -29 65 -100 20 -146
-23 -23 -38 -29 -71 -29 -58 0 -90 33 -90 94 0 37 5 48 31 70 35 30 67 33 110
11z m193 6 c3 -4 17 -6 31 -3 l25 4 0 -111 c0 -105 -1 -113 -25 -136 -30 -31
-82 -33 -119 -4 -14 11 -26 25 -26 30 0 18 29 21 45 5 31 -30 85 -14 85 25 0
14 -8 16 -43 12 -39 -5 -46 -2 -70 27 -37 44 -36 92 2 131 29 29 83 40 95 20z
m285 -6 c26 -13 41 -33 41 -55 0 -4 -27 -18 -60 -30 -34 -13 -59 -28 -57 -34
5 -15 52 -19 75 -7 15 8 23 7 31 -3 17 -20 -23 -46 -72 -46 -83 0 -119 99 -58
161 33 32 58 36 100 14z m566 -10 c22 -21 25 -33 25 -95 0 -63 -2 -70 -20 -70
-11 0 -20 5 -20 12 0 9 -3 9 -12 0 -19 -19 -76 -14 -98 8 -43 43 -5 100 68
100 38 0 43 2 32 15 -14 16 -56 20 -64 6 -7 -11 -46 -2 -46 10 0 16 45 39 78
39 22 0 41 -8 57 -25z m100 -42 c11 -29 22 -53 25 -53 3 0 14 24 25 53 15 38
26 53 43 55 12 2 22 -1 22 -5 0 -5 -24 -63 -53 -129 -42 -95 -57 -120 -75
-122 -27 -4 -27 -1 -2 48 l20 39 -35 80 c-19 43 -35 82 -35 86 0 3 10 5 22 3
17 -2 28 -17 43 -55z"/>
<path d="M1596 727 c-12 -9 -17 -23 -14 -47 2 -27 9 -37 30 -44 53 -18 91 50
50 87 -22 20 -42 21 -66 4z"/>
<path d="M2260 430 l0 -50 39 0 c43 0 71 20 71 50 0 26 -38 50 -77 50 -33 0
-33 0 -33 -50z"/>
<path d="M1308 369 c-21 -12 -24 -69 -6 -87 21 -21 66 -14 83 12 34 51 -23
107 -77 75z"/>
<path d="M1516 364 c-19 -18 -21 -65 -4 -82 29 -29 98 -1 98 39 0 48 -62 76
-94 43z"/>
<path d="M1724 354 c-27 -40 -9 -78 37 -82 32 -3 38 0 49 27 26 65 -49 112
-86 55z"/>
<path d="M2006 364 c-15 -14 -22 -34 -12 -34 18 0 75 33 71 40 -9 15 -42 12
-59 -6z"/>
<path d="M2563 313 c-7 -2 -13 -13 -13 -24 0 -14 7 -19 29 -19 31 0 57 22 46
40 -6 10 -40 12 -62 3z"/>
</g>
</svg>
