<svg id="Layer_1" data-name="Layer 1" xmlns="http://www.w3.org/2000/svg" viewBox="0 0 61.42 67.53"><defs><style>.cls-1{fill:#4488d5;}</style></defs><title>Job_alert_icons</title><path class="cls-1" d="M35.22,25.28H15a1,1,0,1,1,0-2H35.22a1,1,0,0,1,0,2Z"/><path class="cls-1" d="M39.5,31.13H15a1,1,0,0,1,0-2H39.5a1,1,0,0,1,0,2Z"/><path class="cls-1" d="M33.94,37H15a1,1,0,1,1,0-2h19a1,1,0,0,1,0,2Z"/><path class="cls-1" d="M15.69,16.13a2.31,2.31,0,0,1-.8-.13V15a2.93,2.93,0,0,0,.71.11c.64,0,1-.41,1-1.21l0-5.08h1.17l0,5a2.45,2.45,0,0,1-.52,1.67A2,2,0,0,1,15.69,16.13Z"/><path class="cls-1" d="M25.9,12.51a3.88,3.88,0,0,1-.87,2.7,3.16,3.16,0,0,1-2.46,1,3.15,3.15,0,0,1-2.48-1,3.92,3.92,0,0,1-.87-2.72,3.85,3.85,0,0,1,.87-2.71,3.22,3.22,0,0,1,2.49-.95A3.14,3.14,0,0,1,25,9.8,3.89,3.89,0,0,1,25.9,12.51Zm-5.44,0a3.21,3.21,0,0,0,.53,2,1.9,1.9,0,0,0,1.58.68,1.85,1.85,0,0,0,1.56-.67,3.22,3.22,0,0,0,.53-2,3.19,3.19,0,0,0-.52-2,1.86,1.86,0,0,0-1.56-.68,1.92,1.92,0,0,0-1.59.68A3.19,3.19,0,0,0,20.46,12.51Z"/><path class="cls-1" d="M27.43,9h2.11a4.09,4.09,0,0,1,2.13.43,1.51,1.51,0,0,1,.66,1.36,1.64,1.64,0,0,1-.33,1,1.44,1.44,0,0,1-.92.52v0a1.83,1.83,0,0,1,1.1.55A1.68,1.68,0,0,1,32.53,14a1.81,1.81,0,0,1-.67,1.5,2.81,2.81,0,0,1-1.86.55H27.43Zm1.16,3h1.12a2,2,0,0,0,1.07-.23.91.91,0,0,0,.34-.79.78.78,0,0,0-.37-.73,2.24,2.24,0,0,0-1.15-.22h-1Zm0,.94V15.1h1.24a1.83,1.83,0,0,0,1.1-.28,1,1,0,0,0,.38-.89.94.94,0,0,0-.38-.82,2,2,0,0,0-1.16-.27Z"/><polygon class="cls-1" points="1.38 36.16 9.09 27.23 9.09 38.52 1.38 36.16"/><polygon class="cls-1" points="60.08 36.17 52.44 27.36 52.44 38.66 60.08 36.17"/><path class="cls-1" d="M57.33,67.53H4.1A4.11,4.11,0,0,1,0,63.43V39.21a4.11,4.11,0,0,1,4.1-4.1h.28L30.73,51.33,57,35.11h.29a4.1,4.1,0,0,1,4.09,4.1V63.43A4.1,4.1,0,0,1,57.33,67.53ZM3.84,37.12A2.11,2.11,0,0,0,2,39.21V63.43a2.11,2.11,0,0,0,2.1,2.1H57.33a2.1,2.1,0,0,0,2.09-2.1V39.21a2.11,2.11,0,0,0-1.84-2.09L30.73,53.68Z"/><path class="cls-1" d="M52,39.61a1,1,0,0,1-1-1V4.1A2.1,2.1,0,0,0,48.88,2H11.79A2.1,2.1,0,0,0,9.7,4.1V38.27a1,1,0,0,1-2,0V4.1A4.1,4.1,0,0,1,11.79,0H48.88A4.11,4.11,0,0,1,53,4.1V38.61A1,1,0,0,1,52,39.61Z"/></svg>