<svg xmlns="http://www.w3.org/2000/svg" width="48" height="48" viewBox="0 0 48 48"><g stroke="#4985c5" stroke-width="1.14" stroke-miterlimit="10"><path d="M42.43 39.08c0 1.78-1.82 3.22-4.06 3.22h-19.9c-2.25 0-4.07-1.44-4.07-3.22V8.79c0-1.78 1.82-3.22 4.06-3.22h19.91c2.24 0 4.06 1.44 4.06 3.22v30.29z" fill="#fff"/><path fill="none" stroke-linecap="round" d="M25.92 9.04h5.06"/><ellipse cx="28.43" cy="38.59" rx="1.68" ry="1.78" fill="none"/><g><path d="M21.23 40.03a2.27 2.27 0 0 1-2.27 2.27H7.84a2.27 2.27 0 0 1-2.27-2.27V18.71a2.27 2.27 0 0 1 2.27-2.27h11.12a2.27 2.27 0 0 1 2.26 2.27v21.32z" fill="#fff"/><path fill="none" stroke-linecap="round" d="M11.53 18.88h3.76"/><circle cx="13.4" cy="39.69" r="1.25" fill="none"/></g></g></svg>