<svg xmlns="http://www.w3.org/2000/svg" width="48" height="48" viewBox="0 0 48 48"><g stroke="#4985c5" stroke-width="1.13" stroke-miterlimit="10"><path d="M19.38 32.46l-9.07 9.2c-.89.9-2.28.96-3.11.11l-.95-.96c-.83-.85-.78-2.26.12-3.17l6.86-7 2.16-2.18" fill="#51a5d6"/><path d="M17.19 30.34a14 14 0 0 0 20.1 0 14.68 14.68 0 0 0 0-20.46 14 14 0 0 0-20.1 0 14.68 14.68 0 0 0 0 20.46zm1.1-10.23c0-2.43.93-4.72 2.62-6.44a8.8 8.8 0 0 1 12.65 0 9.13 9.13 0 0 1 2.62 6.44c0 2.44-.93 4.72-2.62 6.44a8.8 8.8 0 0 1-12.65 0 9.13 9.13 0 0 1-2.62-6.44z" fill="none"/></g></svg>