<svg id="Layer_1" data-name="Layer 1" xmlns="http://www.w3.org/2000/svg" viewBox="0 0 85.78 78.69"><defs><style>.cls-1{fill:none;}.cls-1,.cls-2{stroke:#4488d5;stroke-miterlimit:10;stroke-width:2px;}.cls-2{fill:#4488d5;}</style></defs><title>Job_alert_icons</title><g id="Working"><path class="cls-1" d="M84.29,42.22c-.32-1-.68-1.94-1.1-2.9a26,26,0,0,0-1.4-2.73l-8.07.58a22.36,22.36,0,0,0-3.4-3.27l.25-8.08a28.4,28.4,0,0,0-5.74-2.22l-5.3,6.1a21.07,21.07,0,0,0-4.69.11L49.28,23.9c-1,.32-1.94.67-2.9,1.09s-1.85.89-2.73,1.38l.59,8.09A21.29,21.29,0,0,0,41,37.84l-8.08-.23a28.16,28.16,0,0,0-2.24,5.73l6.11,5.29a21.25,21.25,0,0,0,.11,4.71L31,58.89A26.36,26.36,0,0,0,32,61.77a27.49,27.49,0,0,0,1.41,2.76L41.52,64a20.48,20.48,0,0,0,3.4,3.25l-.24,8.09a28.3,28.3,0,0,0,5.72,2.24l5.3-6.12a19.55,19.55,0,0,0,4.71-.1L66,77.22a30,30,0,0,0,2.87-1.07,28.61,28.61,0,0,0,2.76-1.42L71,66.65a21.29,21.29,0,0,0,3.26-3.39l8.09.25a28.11,28.11,0,0,0,2.24-5.74l-6.12-5.29a21.12,21.12,0,0,0-.09-4.7ZM63.23,63.36a14,14,0,1,1,7.18-18.43,14,14,0,0,1-7.18,18.43Z"/></g><circle class="cls-2" cx="57.62" cy="50.56" r="5.71"/><path class="cls-1" d="M40.75,19.58a21,21,0,0,0-.29-2.18,18.08,18.08,0,0,0-.53-2.11l-5.68-.9a16,16,0,0,0-1.83-2.81L33.89,6a20,20,0,0,0-3.61-2.46L25.63,6.94a15,15,0,0,0-3.27-.68l-2.89-5a21,21,0,0,0-2.18.29c-.72.13-1.43.32-2.12.51l-.89,5.69a15.66,15.66,0,0,0-2.8,1.82L5.92,8.13a19.72,19.72,0,0,0-2.47,3.61l3.38,4.64a15.05,15.05,0,0,0-.68,3.28l-5,2.9a20,20,0,0,0,.28,2.16A20.9,20.9,0,0,0,2,26.86l5.68.89a14.68,14.68,0,0,0,1.83,2.8L8,36.11a20.06,20.06,0,0,0,3.61,2.47l4.65-3.39a13.87,13.87,0,0,0,3.28.69l2.89,5a20.27,20.27,0,0,0,2.16-.28A16.19,16.19,0,0,0,26.74,40l.89-5.68a14.68,14.68,0,0,0,2.8-1.83L36,34a19.63,19.63,0,0,0,2.47-3.62l-3.38-4.64a14.53,14.53,0,0,0,.69-3.27Z"/><circle class="cls-1" cx="20.96" cy="21.07" r="6.46"/></svg>