<svg xmlns="http://www.w3.org/2000/svg" width="272.462" height="169.401" viewBox="0 0 272.462 169.401"><defs><filter id="a" x="39.342" y="84.96" width="197.788" height="69.202" filterUnits="userSpaceOnUse"><feOffset dy="3"/><feGaussianBlur stdDeviation="3" result="blur"/><feFlood flood-opacity=".161"/><feComposite operator="in" in2="blur"/><feComposite in="SourceGraphic"/></filter></defs><g data-name="Group 317" transform="translate(697 -4567.787)"><circle data-name="Ellipse 224" cx="10.415" cy="10.415" transform="translate(-451.569 4657.992)" fill="#9fb3cb" opacity=".89" r="10.415"/><circle data-name="Ellipse 225" cx="10.415" cy="10.415" transform="translate(-449.126 4653.748)" fill="none" stroke="#537294" stroke-miterlimit="10" r="10.415"/><g data-name="Group 316" transform="translate(74 -25)"><path data-name="Path 944" d="M-740.003 4617.966h214.785a3.832 3.832 0 013.874 3.788v135.053a3.832 3.832 0 01-3.874 3.788h-214.785a3.832 3.832 0 01-3.874-3.788v-135.053a3.832 3.832 0 013.874-3.788z" fill="#262626"/><rect data-name="Rectangle 470" width="259.621" height="7.326" rx="2" transform="translate(-764.34 4754.862)" fill="#dcdcdc"/><rect data-name="Rectangle 471" width="214.859" height="124.107" rx="2" transform="translate(-740.13 4621.802)" fill="#fbfbfb"/><path data-name="Rectangle 478" d="M-663.627 4754.994h59.072a3.874 3.874 0 01-3.872 3.874h-51.326a3.874 3.874 0 01-3.874-3.874z" fill="#aaa"/></g><circle data-name="Ellipse 226" cx="8.783" cy="8.783" transform="translate(-697 4704.605)" fill="#29548b" opacity=".45" r="8.783"/><circle data-name="Ellipse 227" cx="8.783" cy="8.783" transform="translate(-694.94 4701.894)" fill="none" stroke="#537294" stroke-miterlimit="10" opacity=".89" r="8.783"/><path data-name="Path 939" d="M-424.91 4707.637l-15.365 1.456a.283.283 0 00-.18.468l1.793 1.708a.548.548 0 01.164.381l.212 4.112c-.031.164.23.323.296.174l.957-2.917a1.115 1.115 0 01.47-.474l9.178-3.604a.167.167 0 01.157.019.16.16 0 01-.02.271l-8.494 4.466a1.36 1.36 0 00-.456.47l-1.37 2.298c-.064.223.07.374.29.243l1.804-.9a.272.272 0 01.376.089l2.143 3.577a.27.27 0 00.457.013l7.826-11.418a.272.272 0 00-.252-.432z" fill="#005da4"/><path data-name="Path 940" d="M-689.713 4611.144l23.563 8.005a.5.5 0 01.302.388.5.5 0 01-.157.462l-3.255 2.24a.887.887 0 00-.364.579l-1.438 6.876c.005.289-.441.463-.508.182l-.68-5.286a1.993 1.993 0 00-.606-.966l-13.33-9.392a.25.25 0 00-.253-.025.265.265 0 00-.132.207.3.3 0 00.083.243l12.03 10.6a2.49 2.49 0 01.604.959l1.515 4.366c.037.4-.21.612-.51.307l-2.567-2.173a.428.428 0 00-.316-.137.4.4 0 00-.3.15l-4.305 5.27a.394.394 0 01-.387.143.46.46 0 01-.33-.287l-9.152-22.106a.5.5 0 01.054-.507.4.4 0 01.448-.14z" fill="#005da4"/><path data-name="Path 958" d="M-597.405 4624.077h-2.659v-9.994h5.906v2.167h-3.247v1.907h2.994v2.167h-2.994zm6.288 0v-9.994h2.718v9.994zm15.79 0h-3.541l-3.651-7.041h-.062q.13 1.661.13 2.536v4.505h-2.392v-9.994h3.527l3.637 6.945h.041q-.1-1.511-.1-2.427v-4.518h2.406zm12.043-5.209a5.163 5.163 0 01-1.377 3.855 5.29 5.29 0 01-3.873 1.354h-3.233v-9.994h3.459a5.218 5.218 0 013.715 1.23 4.644 4.644 0 011.309 3.555zm-2.8.1a3.176 3.176 0 00-.543-2.037 2.01 2.01 0 00-1.651-.663h-.786v5.6h.6a2.178 2.178 0 001.8-.714 3.451 3.451 0 00.577-2.19zm14.6-1.176l1.723-3.705h2.922l-3.288 6.09v3.9h-2.721v-3.821l-3.288-6.173h2.937zm16.2 1.278a5.39 5.39 0 01-1.237 3.835 5.622 5.622 0 01-7.229-.007 5.369 5.369 0 01-1.259-3.845 5.333 5.333 0 011.248-3.811 5.658 5.658 0 017.243-.01 5.394 5.394 0 011.23 3.834zm-6.877 0q0 2.9 2.017 2.9a1.734 1.734 0 001.521-.7 3.857 3.857 0 00.5-2.194 3.883 3.883 0 00-.5-2.211 1.714 1.714 0 00-1.5-.714q-2.042-.011-2.042 2.915zm18.579-4.983v6.016a4.036 4.036 0 01-1.117 3.034 5.271 5.271 0 01-6.344.031 3.96 3.96 0 01-1.1-3.008v-6.077h2.714v5.865a2.4 2.4 0 00.4 1.538 1.709 1.709 0 002.369 0 2.544 2.544 0 00.373-1.555v-5.848zm6.2 6.357v3.633h-2.7v-9.994h3.274q4.074 0 4.074 2.953a2.951 2.951 0 01-1.7 2.687l2.912 4.354h-3.062l-2.115-3.637zm0-2.03h.506q1.415 0 1.415-1.251 0-1.032-1.388-1.032h-.533zm-113.623 19.848a3.347 3.347 0 01-.988 2.587 3.985 3.985 0 01-2.806.913h-.759v3.315h-2.7v-9.994h3.459a4.228 4.228 0 012.844.827 2.95 2.95 0 01.95 2.352zm-4.553 1.3h.492a1.345 1.345 0 00.967-.342 1.241 1.241 0 00.36-.943q0-1.012-1.121-1.012h-.7zm13.48 5.515h-5.934v-9.994h5.934v2.167h-3.234v1.572h2.994v2.167h-2.994v1.888h3.233zm5.85-3.637v3.637h-2.7v-9.994h3.274q4.074 0 4.074 2.953a2.951 2.951 0 01-1.7 2.687l2.917 4.354h-3.062l-2.119-3.637zm0-2.03h.506q1.415 0 1.415-1.251 0-1.032-1.388-1.032h-.533zm10.829 5.667h-2.655v-9.994h5.906v2.167h-3.251v1.907h3v2.167h-3zm12.221 0h-5.929v-9.994h5.934v2.167h-3.234v1.572h2.994v2.167h-2.994v1.888h3.233zm7.6-7.923a1.722 1.722 0 00-1.5.79 3.813 3.813 0 00-.54 2.177q0 2.885 2.194 2.885a4.494 4.494 0 001.285-.185 12.858 12.858 0 001.251-.444v2.283a6.923 6.923 0 01-2.83.554 4.477 4.477 0 01-3.469-1.312 5.414 5.414 0 01-1.207-3.794 6.053 6.053 0 01.584-2.728 4.182 4.182 0 011.682-1.808 5.079 5.079 0 012.581-.632 7.109 7.109 0 013.1.7l-.827 2.126a9.3 9.3 0 00-1.107-.437 3.87 3.87 0 00-1.192-.175zm10.449 7.923h-2.7v-7.786h-2.44v-2.208h7.57v2.208h-2.43zm14.749-7.923a1.722 1.722 0 00-1.5.79 3.813 3.813 0 00-.54 2.177q0 2.885 2.194 2.885a4.494 4.494 0 001.285-.185 12.858 12.858 0 001.251-.444v2.283a6.923 6.923 0 01-2.83.554 4.477 4.477 0 01-3.469-1.312 5.414 5.414 0 01-1.21-3.795 6.053 6.053 0 01.584-2.728 4.182 4.182 0 011.682-1.808 5.079 5.079 0 012.581-.632 7.109 7.109 0 013.1.7l-.827 2.126a9.3 9.3 0 00-1.107-.437 3.87 3.87 0 00-1.194-.174zm12.167 7.923l-.492-1.873h-3.248l-.505 1.873h-2.967l3.261-10.035h3.6l3.304 10.035zm-1.053-4.088l-.433-1.641q-.15-.547-.366-1.415t-.284-1.244q-.062.349-.243 1.148t-.8 3.151zm16 4.088h-3.541l-3.65-7.041h-.062q.13 1.661.13 2.536v4.505h-2.391v-9.994h3.527l3.637 6.945h.041q-.1-1.511-.1-2.427v-4.518h2.406zm12.044-5.209a5.163 5.163 0 01-1.377 3.855 5.29 5.29 0 01-3.872 1.354h-3.233v-9.994h3.459a5.218 5.218 0 013.715 1.23 4.644 4.644 0 011.309 3.555zm-2.8.1a3.176 3.176 0 00-.543-2.037 2.01 2.01 0 00-1.651-.663h-.786v5.6h.6a2.178 2.178 0 001.8-.714 3.451 3.451 0 00.578-2.19zm5.992 5.109v-9.994h2.714v9.994zm14.757-5.209a5.163 5.163 0 01-1.377 3.855 5.29 5.29 0 01-3.873 1.354h-3.233v-9.994h3.457a5.218 5.218 0 013.715 1.23 4.644 4.644 0 011.311 3.555zm-2.8.1a3.176 3.176 0 00-.543-2.037 2.01 2.01 0 00-1.651-.663h-.786v5.6h.6a2.178 2.178 0 001.8-.714 3.451 3.451 0 00.578-2.19zm11.843 5.109l-.492-1.873h-3.247l-.506 1.873h-2.967l3.261-10.035h3.6l3.304 10.035zm-1.053-4.088l-.431-1.641q-.15-.547-.366-1.415t-.284-1.244q-.062.349-.243 1.148t-.8 3.151zm9.918 4.088h-2.7v-7.786h-2.44v-2.208h7.574v2.208h-2.434zm11.2 0h-5.934v-9.994h5.934v2.167h-3.234v1.572h2.994v2.167h-2.994v1.888h3.233z" fill="#003777"/><path data-name="Path 942" d="M-492.663 4569.843l-24.31 3.103a.443.443 0 00-.259.764l2.93 2.619a.866.866 0 01.29.596l.543 6.517c-.047.261.38.499.48.256l1.346-4.705a1.729 1.729 0 01.72-.774l14.372-6.183a.272.272 0 01.251.022.257.257 0 01-.016.433l-13.233 7.528a2.165 2.165 0 00-.703.77l-2.053 3.708c-.086.36.126.594.463.37l2.815-1.523a.443.443 0 01.606.125l3.582 5.563a.443.443 0 00.73-.001l11.86-18.508a.443.443 0 00-.412-.68z" fill="#005da4"/><path data-name="Path 941" d="M-601.441 4593.01a42.1 42.1 0 0120.508-4.229c3.924.07 15.107 1.89 15.107 1.89s39.272 7.049 39.724 4.06-11.238-5.7-9.432-7.788 11.248-1.916 16.443-1.916 6.678-1.258 6.678-1.258" fill="none" stroke="#005da4" stroke-linecap="round" stroke-dasharray="3"/><g transform="translate(-697 4567.79)" filter="url(#a)"><rect data-name="Rectangle 472" width="179.788" height="51.202" rx="4" transform="translate(48.34 90.96)" fill="#012745"/></g><g data-name="Path 960" fill="#3298d1"><path d="M-631.518 4694.1c-1.153 0-1.437-.476-1.507-1.188-.153-1.557-.181-2.434.94-3.815.715-.88 1.488-1.098 2.384-1.35.519-.147 1.055-.298 1.597-.58.665-.347 1.082-.595 1.35-.788h7.625c.218.121.635.35 1.428.78.568.309 1.128.483 1.622.637.883.275 1.581.492 2.273 1.378 1.119 1.433 1.178 2.34.889 3.717-.2.951-.566 1.12-1.499 1.12l-17.102.089z"/><path d="M-626.476 4687.279c-.31.2-.704.42-1.212.685-.624.326-1.232.497-1.769.649-.84.237-1.394.393-1.929 1.051-.905 1.114-.884 1.736-.743 3.16.018.184.055.268.068.292.032.018.18.083.541.084l17.095-.088H-614.416c.308 0 .448-.03.501-.045.024-.043.073-.148.117-.36.232-1.104.236-1.757-.717-2.979-.519-.664-.985-.81-1.832-1.073-.533-.166-1.137-.354-1.783-.704-.522-.283-.939-.51-1.232-.672h-7.114m-.61-1.8h8.194s.17.104 1.62.89c1.449.785 2.867.575 4.176 2.252 1.309 1.677 1.39 2.882 1.06 4.455-.33 1.573-1.275 1.836-2.38 1.836l-17.1.088c-1.104 0-2.245-.382-2.405-2-.16-1.618-.208-2.813 1.138-4.47 1.347-1.659 2.895-1.449 4.263-2.162 1.368-.713 1.434-.889 1.434-.889z" fill="#2874bb"/></g><g data-name="Path 959" fill="#fff"><path d="M-623.02 4688.578c-1.036 0-1.967-.412-2.767-1.226-1.266-1.287-2.062-3.494-2.027-5.622.03-1.81.402-3.218 1.106-4.185.794-1.09 2.016-1.628 3.736-1.645h.077c1.395 0 2.481.385 3.229 1.145.654.666 1.425 2.013 1.381 4.655-.028 1.752-.505 3.488-1.307 4.764-.6.957-1.678 2.1-3.396 2.114h-.033z"/><path d="M-622.895 4676.8h-.068c-.77.008-1.424.137-1.945.384a2.76 2.76 0 00-1.072.891c-.585.803-.908 2.072-.934 3.67-.031 1.899.663 3.852 1.769 4.976.624.635 1.339.957 2.124.957h.025c1.053-.009 1.942-.578 2.642-1.693.707-1.124 1.144-2.73 1.17-4.3.02-1.286-.157-3.026-1.124-4.008-.58-.59-1.426-.877-2.587-.877m0-1.8c4.227 0 5.57 3.118 5.51 6.715-.06 3.62-1.928 7.733-5.596 7.763h-.04c-3.643 0-5.752-4.155-5.693-7.763.06-3.621 1.439-6.673 5.733-6.715h.086z" fill="#2874bb"/></g><g data-name="person-icon"><g data-name="Path 960" fill="#3298d1"><path d="M-600.518 4694.1c-1.153 0-1.437-.476-1.507-1.188-.153-1.557-.181-2.434.94-3.815.715-.88 1.488-1.098 2.384-1.35.519-.147 1.055-.298 1.597-.58.665-.347 1.082-.595 1.35-.788h7.625c.218.121.635.35 1.428.78.568.309 1.128.483 1.622.637.883.275 1.581.492 2.273 1.378 1.119 1.433 1.178 2.34.889 3.717-.2.951-.566 1.12-1.499 1.12l-17.102.089z"/><path d="M-595.476 4687.279c-.31.2-.704.42-1.212.685-.624.326-1.232.497-1.769.649-.84.237-1.394.393-1.929 1.051-.905 1.114-.884 1.736-.743 3.16.018.184.055.268.068.292.032.018.18.083.541.084l17.095-.088H-583.416c.308 0 .448-.03.501-.045.024-.043.073-.148.117-.36.232-1.104.236-1.757-.717-2.979-.519-.664-.985-.81-1.832-1.073-.533-.166-1.137-.354-1.783-.704-.522-.283-.939-.51-1.232-.672h-7.114m-.61-1.8h8.194s.17.104 1.62.89c1.449.785 2.867.575 4.176 2.252 1.309 1.677 1.39 2.882 1.06 4.455-.33 1.573-1.275 1.836-2.38 1.836l-17.1.088c-1.104 0-2.245-.382-2.405-2-.16-1.618-.208-2.813 1.138-4.47 1.347-1.659 2.895-1.449 4.263-2.162 1.368-.713 1.434-.889 1.434-.889z" fill="#2874bb"/></g><g data-name="Path 959" fill="#fff"><path d="M-592.02 4688.578c-1.036 0-1.967-.412-2.767-1.226-1.266-1.287-2.062-3.494-2.027-5.622.03-1.81.402-3.218 1.106-4.185.794-1.09 2.016-1.628 3.736-1.645h.077c1.395 0 2.481.385 3.229 1.145.654.666 1.425 2.013 1.381 4.655-.028 1.752-.505 3.488-1.307 4.764-.6.957-1.678 2.1-3.396 2.114h-.033z"/><path d="M-591.895 4676.8h-.068c-.77.008-1.424.137-1.945.384a2.76 2.76 0 00-1.072.891c-.585.803-.908 2.072-.934 3.67-.031 1.899.663 3.852 1.769 4.976.624.635 1.339.957 2.124.957h.025c1.053-.009 1.942-.578 2.642-1.693.707-1.124 1.144-2.73 1.17-4.3.02-1.286-.157-3.026-1.124-4.008-.58-.59-1.426-.877-2.587-.877m0-1.8c4.227 0 5.57 3.118 5.51 6.715-.06 3.62-1.928 7.733-5.596 7.763h-.04c-3.643 0-5.752-4.155-5.693-7.763.06-3.621 1.439-6.673 5.733-6.715h.086z" fill="#2874bb"/></g></g><g data-name="person-icon"><g data-name="Path 960" fill="#3298d1"><path d="M-532.518 4694.1c-1.153 0-1.437-.476-1.507-1.188-.153-1.557-.181-2.434.94-3.815.715-.88 1.488-1.098 2.384-1.35.519-.147 1.055-.298 1.597-.58.665-.347 1.082-.595 1.35-.788h7.625c.218.121.635.35 1.428.78.568.309 1.128.483 1.622.637.883.275 1.581.492 2.273 1.378 1.119 1.433 1.178 2.34.889 3.717-.2.951-.566 1.12-1.499 1.12l-17.102.089z"/><path d="M-527.476 4687.279c-.31.2-.704.42-1.212.685-.624.326-1.232.497-1.769.649-.84.237-1.394.393-1.929 1.051-.905 1.114-.884 1.736-.743 3.16.018.184.055.268.068.292.032.018.18.083.541.084l17.095-.088H-515.416c.308 0 .448-.03.501-.045.024-.043.073-.148.117-.36.232-1.104.236-1.757-.717-2.979-.519-.664-.985-.81-1.832-1.073-.533-.166-1.137-.354-1.783-.704-.522-.283-.939-.51-1.232-.672h-7.114m-.61-1.8h8.194s.17.104 1.62.89c1.449.785 2.867.575 4.176 2.252 1.309 1.677 1.39 2.882 1.06 4.455-.33 1.573-1.275 1.836-2.38 1.836l-17.1.088c-1.104 0-2.245-.382-2.405-2-.16-1.618-.208-2.813 1.138-4.47 1.347-1.659 2.895-1.449 4.263-2.162 1.368-.713 1.434-.889 1.434-.889z" fill="#2874bb"/></g><g data-name="Path 959" fill="#fff"><path d="M-524.02 4688.578c-1.036 0-1.967-.412-2.767-1.226-1.266-1.287-2.062-3.494-2.027-5.622.03-1.81.402-3.218 1.106-4.185.794-1.09 2.016-1.628 3.736-1.645h.077c1.395 0 2.481.385 3.229 1.145.654.666 1.425 2.013 1.381 4.655-.028 1.752-.505 3.488-1.307 4.764-.6.957-1.678 2.1-3.396 2.114h-.033z"/><path d="M-523.895 4676.8h-.068c-.77.008-1.424.137-1.945.384a2.76 2.76 0 00-1.072.891c-.585.803-.908 2.072-.934 3.67-.031 1.899.663 3.852 1.769 4.976.624.635 1.339.957 2.124.957h.025c1.053-.009 1.942-.578 2.642-1.693.707-1.124 1.144-2.73 1.17-4.3.02-1.286-.157-3.026-1.124-4.008-.58-.59-1.426-.877-2.587-.877m0-1.8c4.227 0 5.57 3.118 5.51 6.715-.06 3.62-1.928 7.733-5.596 7.763h-.04c-3.643 0-5.752-4.155-5.693-7.763.06-3.621 1.439-6.673 5.733-6.715h.086z" fill="#2874bb"/></g></g><g data-name="person-icon"><g data-name="Path 960" fill="#3298d1"><path d="M-501.518 4694.1c-1.153 0-1.437-.476-1.507-1.188-.153-1.557-.181-2.434.94-3.815.715-.88 1.488-1.098 2.384-1.35.519-.147 1.055-.298 1.597-.58.665-.347 1.082-.595 1.35-.788h7.625c.218.121.635.35 1.428.78.568.309 1.128.483 1.622.637.883.275 1.581.492 2.273 1.378 1.119 1.433 1.178 2.34.889 3.717-.2.951-.566 1.12-1.499 1.12l-17.102.089z"/><path d="M-496.476 4687.279c-.31.2-.704.42-1.212.685-.624.326-1.232.497-1.769.649-.84.237-1.394.393-1.929 1.051-.905 1.114-.884 1.736-.743 3.16.018.184.055.268.068.292.032.018.18.083.541.084l17.095-.088H-484.416c.308 0 .448-.03.501-.045.024-.043.073-.148.117-.36.232-1.104.236-1.757-.717-2.979-.519-.664-.985-.81-1.832-1.073-.533-.166-1.137-.354-1.783-.704-.522-.283-.939-.51-1.232-.672h-7.114m-.61-1.8h8.194s.17.104 1.62.89c1.449.785 2.867.575 4.176 2.252 1.309 1.677 1.39 2.882 1.06 4.455-.33 1.573-1.275 1.836-2.38 1.836l-17.1.088c-1.104 0-2.245-.382-2.405-2-.16-1.618-.208-2.813 1.138-4.47 1.347-1.659 2.895-1.449 4.263-2.162 1.368-.713 1.434-.889 1.434-.889z" fill="#2874bb"/></g><g data-name="Path 959" fill="#fff"><path d="M-493.02 4688.578c-1.036 0-1.967-.412-2.767-1.226-1.266-1.287-2.062-3.494-2.027-5.622.03-1.81.402-3.218 1.106-4.185.794-1.09 2.016-1.628 3.736-1.645h.077c1.395 0 2.481.385 3.229 1.145.654.666 1.425 2.013 1.381 4.655-.028 1.752-.505 3.488-1.307 4.764-.6.957-1.678 2.1-3.396 2.114h-.033z"/><path d="M-492.895 4676.8h-.068c-.77.008-1.424.137-1.945.384a2.76 2.76 0 00-1.072.891c-.585.803-.908 2.072-.934 3.67-.031 1.899.663 3.852 1.769 4.976.624.635 1.339.957 2.124.957h.025c1.053-.009 1.942-.578 2.642-1.693.707-1.124 1.144-2.73 1.17-4.3.02-1.286-.157-3.026-1.124-4.008-.58-.59-1.426-.877-2.587-.877m0-1.8c4.227 0 5.57 3.118 5.51 6.715-.06 3.62-1.928 7.733-5.596 7.763h-.04c-3.643 0-5.752-4.155-5.693-7.763.06-3.621 1.439-6.673 5.733-6.715h.086z" fill="#2874bb"/></g></g><g data-name="person-icon"><g data-name="Path 960" fill="#3298d1"><path d="M-568.885 4698.767c-1.72 0-2.037-.858-2.12-1.697-.193-1.958-.23-3.153 1.23-4.952.942-1.16 1.945-1.443 3.105-1.77.64-.18 1.302-.367 1.96-.71.895-.467 1.415-.784 1.725-1.014h9.699c.253.142.775.429 1.84 1.007.694.376 1.355.581 1.994.78 1.147.357 2.053.64 2.965 1.808 1.45 1.857 1.527 3.09 1.158 4.85-.283 1.35-.904 1.587-2.104 1.587l-21.452.111z"/><path d="M-562.7 4689.524c-.374.25-.885.542-1.593.912-.742.386-1.48.594-2.132.778-1.097.31-1.889.533-2.65 1.471-1.247 1.535-1.218 2.427-1.034 4.297.054.548.222.66.277.698.083.056.343.187.944.187l21.446-.11H-547.433c.566 0 .8-.073.896-.134.124-.079.247-.355.327-.738.326-1.553.26-2.515-.987-4.113-.739-.946-1.448-1.167-2.523-1.501-.648-.202-1.383-.431-2.154-.85-.83-.449-1.336-.726-1.645-.897h-9.181m-.627-1.8h10.279s.214.13 2.031 1.115c1.818.986 3.597.722 5.24 2.826 1.641 2.104 1.743 3.616 1.329 5.589-.414 1.973-1.6 2.302-2.985 2.302l-21.45.111c-1.385 0-2.817-.48-3.017-2.509-.2-2.029-.262-3.528 1.427-5.608 1.689-2.08 3.631-1.816 5.348-2.71 1.716-.895 1.798-1.116 1.798-1.116z" fill="#2874bb"/></g><g data-name="Path 959" fill="#fff"><path d="M-558.227 4691.84c-1.363 0-2.585-.54-3.633-1.605-1.63-1.657-2.653-4.49-2.608-7.218.038-2.318.52-4.128 1.43-5.38 1.042-1.43 2.635-2.136 4.87-2.158h.099c1.813 0 3.23.506 4.213 1.505 1.543 1.568 1.83 4.13 1.799 6.003-.037 2.239-.647 4.46-1.675 6.095-.784 1.248-2.194 2.74-4.453 2.759h-.042z"/><path d="M-558.07 4676.379h-.09c-1.93.02-3.288.604-4.15 1.788-.8 1.099-1.223 2.736-1.259 4.865-.04 2.5.882 5.079 2.35 6.572.873.887 1.88 1.337 2.992 1.337h.035c1.486-.013 2.73-.8 3.698-2.338.943-1.5 1.503-3.552 1.537-5.63.028-1.701-.216-4.012-1.54-5.358-.819-.832-1.987-1.236-3.572-1.236m0-1.8c5.302 0 6.986 3.911 6.912 8.423-.075 4.542-2.419 9.7-7.02 9.739h-.05c-4.57 0-7.216-5.213-7.141-9.739.075-4.542 1.804-8.37 7.19-8.423h.109z" fill="#2874bb"/></g></g><g data-name="find/search" stroke="#2874bb" stroke-miterlimit="10" stroke-width="2"><path data-name="Path 831" d="M-547.234 4701.187l12.865 12.813a3.126 3.126 0 004.413.159l1.347-1.347a3.12 3.12 0 00-.164-4.411l-9.731-9.747v.009l-3.057-3.043" fill="#3298d1"/><path data-name="Path 832" d="M-544.12 4669.745a20.024 20.024 0 00-14.252-5.9 20.013 20.013 0 00-14.248 5.9 20.179 20.179 0 000 28.5 20.026 20.026 0 0014.248 5.9 20.043 20.043 0 0014.252-5.9 20.182 20.182 0 000-28.5zm-5.28 23.219a12.6 12.6 0 01-8.972 3.718 12.584 12.584 0 01-8.969-3.718 12.583 12.583 0 01-3.716-8.969 12.593 12.593 0 013.716-8.97 12.592 12.592 0 018.969-3.716 12.6 12.6 0 018.972 3.716 12.606 12.606 0 013.713 8.97 12.6 12.6 0 01-3.714 8.968z" fill="#f7f9fa"/></g></g></svg>